<?xml version="1.0" encoding="UTF-8" standalone="no"?>
<!DOCTYPE svg PUBLIC "-//W3C//DTD SVG 1.1//EN" "http://www.w3.org/Graphics/SVG/1.1/DTD/svg11.dtd">
<svg width="100%" height="100%" viewBox="0 0 4889 4889" version="1.1" xmlns="http://www.w3.org/2000/svg" xmlns:xlink="http://www.w3.org/1999/xlink" xml:space="preserve" xmlns:serif="http://www.serif.com/" style="fill-rule:evenodd;clip-rule:evenodd;stroke-linejoin:round;stroke-miterlimit:2;">
    <g id="Artboard1" transform="matrix(1,0,0,1,-255.679,305.769)">
        <rect x="255.679" y="-305.769" width="4888.07" height="4888.07" style="fill:none;"/>
        <g transform="matrix(1.91553,0,0,1.91553,-3511.66,-3286.27)">
            <path d="M3338.65,3600.05L2997.3,3600.05L2997.3,2063.7L3338.65,2063.7L3338.65,3600.05ZM3797.34,2767.87C4064.02,2725.19 4256.03,2592.89 4256.03,2405.12C4256.03,2127.73 3829.34,1978.63 3338.65,1978.63L2143.92,1978.63L2143.92,3685.12L3338.65,3685.12C3914.68,3685.12 4341.36,3536.03 4341.36,3215.96C4341.36,2989.78 4128.02,2853.22 3797.34,2799.87L3797.34,2767.87Z" style="fill-rule:nonzero;"/>
        </g>
    </g>
</svg>
