<?xml version="1.0" encoding="UTF-8" standalone="no"?>
<!DOCTYPE svg PUBLIC "-//W3C//DTD SVG 1.1//EN" "http://www.w3.org/Graphics/SVG/1.1/DTD/svg11.dtd">
<svg width="100%" height="100%" viewBox="0 0 10488 2830" version="1.1" xmlns="http://www.w3.org/2000/svg" xmlns:xlink="http://www.w3.org/1999/xlink" xml:space="preserve" xmlns:serif="http://www.serif.com/" style="fill-rule:evenodd;clip-rule:evenodd;stroke-linejoin:round;stroke-miterlimit:2;">
    <g transform="matrix(1,0,0,1,-3089.8,-6516.42)">
        <g transform="matrix(4.16667,0,0,4.16667,0,0)">
            <path d="M2460.08,1900.53L2478.32,1871.72L2478.32,1712.55L2466.86,1712.55L2466.86,1563.94L2788.1,1563.94L2773.75,1586.86L2773.75,1712.55L2570.42,1712.55L2626.03,1741.35L2626.03,1826.67L2746.93,1826.67L2746.93,1975.38L2626.03,1975.38L2626.03,2086.61L2773.75,2086.61L2773.75,2211.3L2788.1,2234.33L2773.75,2234.33L2773.75,2235.22L2466.86,2235.22L2466.86,2086.61L2478.32,2086.61L2478.32,1929.33L2460.08,1900.53ZM2439.45,1982.06L2439.45,2159.47L2362.7,2236.22L2146.02,2236.22L2069.27,2159.47L2069.27,1885.68L2216.98,2029L2216.98,2071.26L2234.23,2088.51L2346.46,2088.51L2291.74,2060.7L2291.74,2043.46L2222.67,1973.39L2189.08,1965.71L2181.5,1933.12L2069.27,1819.99L2069.27,1641.58L2146.02,1564.84L2362.7,1564.84L2439.45,1641.58L2439.45,1913.88L2291.74,1772.95L2291.74,1730.79L2274.49,1713.55L2162.26,1713.55L2216.98,1740.36L2216.98,1758.6L2285.96,1828.57L2319.54,1836.24L2327.22,1868.93L2439.45,1982.06ZM1876.91,1716.44L1743.55,1716.44L1800.16,1745.14L1800.16,1831.46L1876.91,1831.46L1876.91,1716.44ZM1637.1,2093.29L1647.66,2093.29L1647.66,1933.12L1629.42,1904.42L1647.66,1877.5L1647.66,1647.36L1726.3,1566.73L1951.66,1566.73L2032.29,1647.36L2032.29,1875.61L2048.54,1904.42L2032.29,1936.01L2032.29,2093.29L2040.86,2093.29L2040.86,2239.11L1868.23,2239.11L1868.23,2093.29L1876.91,2093.29L1876.91,1980.17L1800.16,1980.17L1800.16,2093.29L1811.72,2093.29L1811.72,2239.11L1637.1,2239.11L1637.1,2093.29ZM1462.07,2095.19L1462.07,1983.95L1386.23,1983.95L1386.23,2095.19L1462.07,2095.19ZM1462.07,1720.22L1330.61,1720.22L1386.23,1747.03L1386.23,1834.35L1462.07,1834.35L1462.07,1720.22ZM1219.38,1909.2L1236.62,1880.39L1236.62,1720.22L1226.05,1720.22L1226.05,1571.61L1533.04,1571.61L1608.79,1648.26L1608.79,1874.61L1589.55,1909.2L1608.79,1940.8L1608.79,2162.36L1529.15,2242.9L1226.05,2242.9L1226.05,2095.19L1236.62,2095.19L1236.62,1937.01L1219.38,1909.2Z" style="fill-rule:nonzero;"/>
        </g>
        <g transform="matrix(4.16667,0,0,4.16667,0,0)">
            <rect x="1320.34" y="1681.15" width="65.89" height="65.88"/>
        </g>
        <g transform="matrix(4.16667,0,0,4.16667,0,0)">
            <rect x="1734.18" y="1681.15" width="65.98" height="65.88"/>
        </g>
        <g transform="matrix(4.16667,0,0,4.16667,0,0)">
            <rect x="2151" y="1681.15" width="65.98" height="65.88"/>
        </g>
        <g transform="matrix(4.16667,0,0,4.16667,0,0)">
            <rect x="2560.05" y="1681.15" width="65.98" height="65.88"/>
        </g>
        <g transform="matrix(4.16667,0,0,4.16667,0,0)">
            <rect x="2291.74" y="2060.7" width="65.98" height="65.98"/>
        </g>
        <g transform="matrix(4.16667,0,0,4.16667,0,0)">
            <rect x="2846.31" y="1563.94" width="114.62" height="670.39"/>
        </g>
        <g transform="matrix(4.16667,0,0,4.16667,0,0)">
            <rect x="2995.02" y="1658.63" width="114.72" height="480.91"/>
        </g>
        <g transform="matrix(4.16667,0,0,4.16667,0,0)">
            <rect x="3143.72" y="1760.79" width="114.73" height="276.59"/>
        </g>
        <g transform="matrix(4.16667,0,0,4.16667,0,0)">
            <rect x="1039.07" y="1563.94" width="114.721" height="670.39"/>
        </g>
        <g transform="matrix(4.16667,0,0,4.16667,0,0)">
            <rect x="890.362" y="1658.63" width="114.618" height="480.91"/>
        </g>
        <g transform="matrix(4.16667,0,0,4.16667,0,0)">
            <rect x="741.553" y="1760.79" width="114.721" height="276.59"/>
        </g>
        <g transform="matrix(4.16667,0,0,4.16667,0,0)">
            <path d="M1676.17,2239.11L1676.17,1618.16L1647.66,1647.36L1647.66,1877.5L1629.42,1904.42L1647.66,1933.12L1647.66,2093.29L1637.1,2093.29L1637.1,2239.11L1676.17,2239.11Z" style="fill-rule:nonzero;"/>
        </g>
        <g transform="matrix(4.16667,0,0,4.16667,0,0)">
            <path d="M2105.75,1856.77L2105.75,1605.1L2069.27,1641.58L2069.27,1819.99L2105.75,1856.77ZM2105.75,2196.05L2105.75,1921.06L2069.27,1885.58L2069.27,2159.47L2105.75,2196.05Z" style="fill-rule:nonzero;"/>
        </g>
        <g transform="matrix(4.16667,0,0,4.16667,0,0)">
            <path d="M1219.38,1909.2L1236.62,1880.39L1236.62,1720.22L1226.05,1720.22L1226.05,1571.61L1266.72,1571.61L1266.72,2242.9L1226.05,2242.9L1226.05,2095.19L1236.62,2095.19L1236.62,1937.01L1219.38,1909.2Z" style="fill-rule:nonzero;"/>
        </g>
        <g transform="matrix(4.16667,0,0,4.16667,0,0)">
            <path d="M2505.53,2235.22L2505.53,1563.94L2466.86,1563.94L2466.86,1712.55L2478.32,1712.55L2478.32,1871.72L2460.08,1900.53L2478.32,1929.33L2478.32,2086.61L2466.86,2086.61L2466.86,2235.22L2505.53,2235.22Z" style="fill-rule:nonzero;"/>
        </g>
        <g transform="matrix(4.16667,0,0,4.16667,0,0)">
            <rect x="1039.07" y="1563.94" width="28.111" height="670.39"/>
        </g>
        <g transform="matrix(4.16667,0,0,4.16667,0,0)">
            <rect x="890.362" y="1658.63" width="28.107" height="480.91"/>
        </g>
        <g transform="matrix(4.16667,0,0,4.16667,0,0)">
            <rect x="741.553" y="1760.79" width="28.207" height="276.59"/>
        </g>
        <g transform="matrix(4.16667,0,0,4.16667,0,0)">
            <rect x="2846.31" y="1563.94" width="28.1" height="670.39"/>
        </g>
        <g transform="matrix(4.16667,0,0,4.16667,0,0)">
            <rect x="2995.02" y="1658.63" width="28.1" height="480.91"/>
        </g>
        <g transform="matrix(4.16667,0,0,4.16667,0,0)">
            <rect x="3143.72" y="1760.79" width="28.21" height="276.59"/>
        </g>
    </g>
</svg>
